<svg xmlns="http://www.w3.org/2000/svg" viewBox="0 0 840 200" role="img" aria-label="Blitztext für Windows — Diktieren, Transkribieren, per KI umschreiben, automatisch einfügen">
  <defs>
    <linearGradient id="bg" x1="0" y1="0" x2="1" y2="1">
      <stop offset="0%" stop-color="#1e1b4b"/>
      <stop offset="55%" stop-color="#4338ca"/>
      <stop offset="100%" stop-color="#7c3aed"/>
    </linearGradient>
    <linearGradient id="bolt" x1="0" y1="0" x2="0" y2="1">
      <stop offset="0%" stop-color="#fde047"/>
      <stop offset="100%" stop-color="#f59e0b"/>
    </linearGradient>
  </defs>
  <rect width="840" height="200" rx="14" fill="url(#bg)"/>
  <g opacity="0.08" fill="#ffffff">
    <path d="M700 26 l-24 64 h20 l-10 58 46-76 h-23 l14-46 Z"/>
    <path d="M775 96 l-15 40 h12 l-6 36 29-48 h-14 l8-28 Z"/>
    <path d="M640 120 l-12 32 h10 l-5 30 24-40 h-12 l7-22 Z"/>
  </g>
  <g transform="translate(52,25)">
    <path d="M58 0 L0 84 H36 L20 150 L96 56 H58 L82 0 Z" fill="url(#bolt)"/>
  </g>
  <text x="190" y="92" font-family="'Segoe UI', -apple-system, 'Helvetica Neue', Arial, sans-serif" font-size="52" font-weight="700" fill="#ffffff">Blitztext <tspan fill="#c7d2fe" font-weight="400">für Windows</tspan></text>
  <text x="192" y="138" font-family="'Segoe UI', -apple-system, 'Helvetica Neue', Arial, sans-serif" font-size="20" fill="#e0e7ff">Diktieren · Transkribieren · per KI umschreiben · automatisch einfügen — systemweit per Hotkey</text>
</svg>
